<?xml version="1.0" encoding="utf-8"?>
<!-- Generator: Adobe Illustrator 19.1.0, SVG Export Plug-In . SVG Version: 6.00 Build 0)  -->
<svg version="1.1" xmlns="http://www.w3.org/2000/svg" xmlns:xlink="http://www.w3.org/1999/xlink" x="0px" y="0px"
	 viewBox="590 -500 1792 1792" style="enable-background:new 590 -500 1792 1792;" xml:space="preserve">
<style type="text/css">
	.st0{display:none;}
	.st1{display:inline;}
	.st2{fill:#FFFFFF;}
</style>
<g id="Layer_2" class="st0">
	<rect x="590" y="-500" class="st1" width="1792" height="1792"/>
</g>
<g id="Layer_3">
	<path class="st2" d="M2281,1074l-343-343c82.7-119.3,124-252.3,124-399c0-1.3,0-2.6,0-3.9c-45.9,18.1-94.8,27.3-146.2,27.3
		c-38,0-74.7-5-109.9-15c-1.9,119.7-45.7,222.5-131.4,308.1C1586.8,736.2,1481.3,780,1358,780s-228.8-43.8-316.5-131.5
		C953.8,560.8,910,455.3,910,332s43.8-228.8,131.5-316.5C1129.2-72.2,1234.7-116,1358-116c57.8,0,111.7,9.6,161.6,28.9
		c5.9-55.5,23-107.8,51.1-156c16.1-27.6,34.9-52.7,56.4-75.2c-85.7-35.8-175.4-53.7-269.1-53.7c-95.3,0-186.5,18.5-273.5,55.5
		s-162,87-225,150s-113,138-150,225S654,236.7,654,332s18.5,186.5,55.5,273.5s87,162,150,225s138,113,225,150s178.2,55.5,273.5,55.5
		c146.7,0,279.7-41.3,399-124l343,342c24,25.3,54,38,90,38c34.7,0,64.7-12.7,90-38s38-55.3,38-90
		C2318,1128.7,2305.7,1098.7,2281,1074z"/>
	<path class="st2" d="M1915.8,390.3c-78.3,0-151.5-19.6-217.6-58.2c-66.1-38.6-119.1-91.6-157.7-157.7
		c-38.6-66.2-58.2-139.4-58.2-217.6c0-78.3,19.6-151.5,58.2-217.6c38.6-66.1,91.6-119.1,157.7-157.7
		c66.2-38.6,139.4-58.2,217.6-58.2s151.5,19.6,217.6,58.2c66.1,38.6,119.1,91.6,157.7,157.7c38.6,66.2,58.2,139.4,58.2,217.6
		c0,78.3-19.6,151.5-58.2,217.6c-38.6,66.1-91.6,119.1-157.7,157.7C2067.3,370.8,1994.1,390.3,1915.8,390.3z M1915.8-425.7
		c-69.1,0-133.7,17.2-192,51.3c-58.4,34.1-105.2,80.9-139.3,139.3c-34,58.3-51.3,122.9-51.3,192c0,69.1,17.2,133.7,51.3,192
		c34.1,58.4,80.9,105.2,139.3,139.3c58.3,34,122.9,51.3,192,51.3s133.7-17.2,192-51.3c58.4-34.1,105.2-80.9,139.3-139.3
		c34-58.3,51.3-122.9,51.3-192c0-69.1-17.2-133.7-51.3-192c-34.1-58.4-80.9-105.2-139.3-139.3
		C2049.5-408.4,1984.9-425.7,1915.8-425.7z"/>
	<path id="center" class="st2" d="M2181.3-6.6v-73.2c0-9.9-3.6-18.5-10.9-25.7c-7.2-7.2-15.8-10.9-25.7-10.9h-146.4v-146.4
		c0-9.9-3.6-18.5-10.9-25.7c-7.2-7.2-15.8-10.9-25.7-10.9h-73.2c-9.9,0-18.5,3.6-25.7,10.9c-7.2,7.2-10.9,15.8-10.9,25.7v146.4
		h-146.4c-9.9,0-18.5,3.6-25.7,10.9c-7.2,7.2-10.9,15.8-10.9,25.7v73.2c0,9.9,3.6,18.5,10.9,25.7s15.8,10.9,25.7,10.9H1852v146.4
		c0,9.9,3.6,18.5,10.9,25.7c7.2,7.2,15.8,10.9,25.7,10.9h73.2c9.9,0,18.5-3.6,25.7-10.9s10.9-15.8,10.9-25.7V30h146.4
		c9.9,0,18.5-3.6,25.7-10.9S2181.3,3.3,2181.3-6.6z"/>
</g>
</svg>
