<?xml version="1.0" encoding="utf-8"?>
<!-- Generator: Adobe Illustrator 19.1.0, SVG Export Plug-In . SVG Version: 6.00 Build 0)  -->
<svg version="1.1" id="Layer_1" xmlns="http://www.w3.org/2000/svg" xmlns:xlink="http://www.w3.org/1999/xlink" x="0px" y="0px"
	 viewBox="1163.6 738.9 95.3 95.3" style="enable-background:new 1163.6 738.9 95.3 95.3;" xml:space="preserve">
<style type="text/css">
	.st0{display:none;}
	.st1{display:inline;}
	.st2{display:inline;fill:#FFFFFF;}
	.st3{fill:#666666;}
</style>
<g id="Layer_2" class="st0">
	<rect x="1163.6" y="738.9" class="st1" width="95.3" height="95.3"/>
</g>
<g id="white" class="st0">
	<path class="st2" d="M1229.3,778.6c0,0.6-0.2,1.1-0.7,1.6l-15.8,15.8c-0.4,0.4-1,0.7-1.6,0.7s-1.1-0.2-1.6-0.7l-15.8-15.8
		c-0.4-0.4-0.7-1-0.7-1.6c0-0.6,0.2-1.1,0.7-1.6s1-0.7,1.6-0.7h31.5c0.6,0,1.1,0.2,1.6,0.7S1229.3,778,1229.3,778.6z"/>
</g>
<g id="gray">
	<path class="st3" d="M1229.3,778.6c0,0.6-0.2,1.1-0.7,1.6l-15.8,15.8c-0.4,0.4-1,0.7-1.6,0.7s-1.1-0.2-1.6-0.7l-15.8-15.8
		c-0.4-0.4-0.7-1-0.7-1.6c0-0.6,0.2-1.1,0.7-1.6s1-0.7,1.6-0.7h31.5c0.6,0,1.1,0.2,1.6,0.7S1229.3,778,1229.3,778.6z"/>
</g>
</svg>
