<?xml version="1.0" encoding="utf-8"?>
<!-- Generator: Adobe Illustrator 19.1.1, SVG Export Plug-In . SVG Version: 6.00 Build 0)  -->
<svg version="1.1" id="Layer_1" xmlns="http://www.w3.org/2000/svg" xmlns:xlink="http://www.w3.org/1999/xlink" x="0px" y="0px"
	 viewBox="0 0 1792 8978" style="enable-background:new 0 0 1792 8978;" xml:space="preserve">
<style type="text/css">
	.st0{fill:#666766;}
	.st1{fill:#83BC41;}
	.st2{fill:#CCCCCC;}
	.st3{fill:#168E4C;}
	.st4{fill:#313131;}
</style>
<g id="check_in">
	<path class="st0" d="M1606.8,239.7h-492.1C1114.7,118.9,1016.8,21,896,21s-218.7,97.9-218.7,218.7H185.2
		c-30.2,0-54.7,24.5-54.7,54.7V1716c0,30.2,24.5,54.7,54.7,54.7h1421.6c30.2,0,54.7-24.5,54.7-54.7V294.4
		C1661.5,264.2,1637,239.7,1606.8,239.7z M896,130.4c60.4,0,109.4,49,109.4,109.4s-49,109.4-109.4,109.4s-109.4-49-109.4-109.4
		S835.6,130.4,896,130.4z M1552.1,1661.3H239.9V349.1h218.7v164c0,30.2,24.5,54.7,54.7,54.7h765.5c30.2,0,54.7-24.5,54.7-54.7v-164
		h218.7V1661.3z"/>
	<path class="st0" d="M786.6,1487.9L436,1082.5l100-100l250.7,196.1l469.4-414.8l100,100L786.6,1487.9z"/>
</g>
<g id="check_in_1_">
	<path class="st1" d="M1606.8,2041.5h-492.1c0-120.8-97.9-218.7-218.7-218.7s-218.7,97.9-218.7,218.7H185.2
		c-30.2,0-54.7,24.5-54.7,54.7v1421.6c0,30.2,24.5,54.7,54.7,54.7h1421.6c30.2,0,54.7-24.5,54.7-54.7V2096.2
		C1661.5,2066,1637,2041.5,1606.8,2041.5z M896,1932.2c60.4,0,109.4,49,109.4,109.4c0,60.4-49,109.4-109.4,109.4
		s-109.4-49-109.4-109.4C786.6,1981.2,835.6,1932.2,896,1932.2z M1552.1,3463.1H239.9V2150.9h218.7v164c0,30.2,24.5,54.7,54.7,54.7
		h765.5c30.2,0,54.7-24.5,54.7-54.7v-164h218.7V3463.1z"/>
	<path class="st1" d="M786.6,3289.7L436,2884.4l100-100l250.7,196.1l469.4-414.8l100,100L786.6,3289.7z"/>
</g>
<g id="check_in_2_">
	<path class="st2" d="M1606.8,3843.4h-492.1c0-120.8-97.9-218.7-218.7-218.7s-218.7,97.9-218.7,218.7H185.2
		c-30.2,0-54.7,24.5-54.7,54.7v1421.6c0,30.2,24.5,54.7,54.7,54.7h1421.6c30.2,0,54.7-24.5,54.7-54.7V3898.1
		C1661.5,3867.9,1637,3843.4,1606.8,3843.4z M896,3734c60.4,0,109.4,49,109.4,109.4s-49,109.4-109.4,109.4s-109.4-49-109.4-109.4
		S835.6,3734,896,3734z M1552.1,5265H239.9V3952.7h218.7v164c0,30.2,24.5,54.7,54.7,54.7h765.5c30.2,0,54.7-24.5,54.7-54.7v-164
		h218.7V5265z"/>
	<path class="st2" d="M786.6,5091.6L436,4686.2l100-100l250.7,196.1l469.4-414.8l100,100L786.6,5091.6z"/>
</g>
<g id="check_in_3_">
	<path class="st3" d="M1606.8,5645.2h-492.1c0-120.8-97.9-218.7-218.7-218.7s-218.7,97.9-218.7,218.7H185.2
		c-30.2,0-54.7,24.5-54.7,54.7v1421.6c0,30.2,24.5,54.7,54.7,54.7h1421.6c30.2,0,54.7-24.5,54.7-54.7V5699.9
		C1661.5,5669.7,1637,5645.2,1606.8,5645.2z M896,5535.9c60.4,0,109.4,49,109.4,109.4c0,60.4-49,109.4-109.4,109.4
		s-109.4-49-109.4-109.4C786.6,5584.8,835.6,5535.9,896,5535.9z M1552.1,7066.8H239.9V5754.6h218.7v164c0,30.2,24.5,54.7,54.7,54.7
		h765.5c30.2,0,54.7-24.5,54.7-54.7v-164h218.7V7066.8z"/>
	<path class="st3" d="M786.6,6893.4L436,6488l100-100l250.7,196.1l469.4-414.8l100,100L786.6,6893.4z"/>
</g>
<g id="check_in_4_">
	<path class="st4" d="M1606.8,7447.1h-492.1c0-120.8-97.9-218.7-218.7-218.7s-218.7,97.9-218.7,218.7H185.2
		c-30.2,0-54.7,24.5-54.7,54.7v1421.6c0,30.2,24.5,54.7,54.7,54.7h1421.6c30.2,0,54.7-24.5,54.7-54.7V7501.7
		C1661.5,7471.5,1637,7447.1,1606.8,7447.1z M896,7337.7c60.4,0,109.4,49,109.4,109.4c0,60.4-49,109.4-109.4,109.4
		s-109.4-49-109.4-109.4C786.6,7386.7,835.6,7337.7,896,7337.7z M1552.1,8868.6H239.9V7556.4h218.7v164c0,30.2,24.5,54.7,54.7,54.7
		h765.5c30.2,0,54.7-24.5,54.7-54.7v-164h218.7V8868.6z"/>
	<path class="st4" d="M786.6,8695.2L436,8289.9l100-100L786.7,8386l469.4-414.8l100,100L786.6,8695.2z"/>
</g>
</svg>
