<?xml version="1.0" encoding="utf-8"?>
<!-- Generator: Adobe Illustrator 19.1.0, SVG Export Plug-In . SVG Version: 6.00 Build 0)  -->
<svg version="1.1" id="Layer_1" xmlns="http://www.w3.org/2000/svg" xmlns:xlink="http://www.w3.org/1999/xlink" x="0px" y="0px"
	 viewBox="590 -500 1792 1792" style="enable-background:new 590 -500 1792 1792;" xml:space="preserve">
<style type="text/css">
	.st0{display:none;}
	.st1{display:inline;fill:#666666;}
	.st2{fill:#666666;}
</style>
<g id="Layer_2" class="st0">
	<rect x="590" y="-500" class="st1" width="1792" height="1792"/>
</g>
<g id="Layer_3">
	<path class="st2" d="M2265.4,1062.4l-343-343c82.7-119.3,124-252.3,124-399c0-1.3,0-2.6,0-3.9c-45.9,18.1-94.8,27.3-146.2,27.3
		c-38,0-74.7-5-109.9-15c-1.9,119.7-45.7,222.5-131.4,308.1c-87.7,87.7-193.2,131.5-316.5,131.5s-228.8-43.8-316.5-131.5
		S894.3,443.7,894.3,320.4S938.1,91.6,1025.8,3.9s193.2-131.5,316.5-131.5c57.8,0,111.7,9.6,161.6,28.9c5.9-55.5,23-107.8,51.1-156
		c16.1-27.6,34.9-52.7,56.4-75.2c-85.7-35.8-175.4-53.7-269.1-53.7c-95.3,0-186.5,18.5-273.5,55.5s-162,87-225,150s-113,138-150,225
		s-55.5,178.2-55.5,273.5s18.5,186.5,55.5,273.5s87,162,150,225s138,113,225,150s178.2,55.5,273.5,55.5c146.7,0,279.7-41.3,399-124
		l343,342c24,25.3,54,38,90,38c34.7,0,64.7-12.7,90-38c25.3-25.3,38-55.3,38-90C2302.4,1117.1,2290,1087.1,2265.4,1062.4z"/>
	<path class="st2" d="M1900.2,378.7c-78.3,0-151.5-19.6-217.6-58.2s-119.1-91.6-157.7-157.7c-38.6-66.2-58.2-139.4-58.2-217.6
		c0-78.3,19.6-151.5,58.2-217.6s91.6-119.1,157.7-157.7c66.2-38.6,139.4-58.2,217.6-58.2s151.5,19.6,217.6,58.2
		s119.1,91.6,157.7,157.7c38.6,66.2,58.2,139.4,58.2,217.6c0,78.3-19.6,151.5-58.2,217.6c-38.6,66.1-91.6,119.1-157.7,157.7
		C2051.6,359.2,1978.4,378.7,1900.2,378.7z M1900.2-437.3c-69.1,0-133.7,17.2-192,51.3c-58.4,34.1-105.2,80.9-139.3,139.3
		c-34,58.3-51.3,122.9-51.3,192s17.2,133.7,51.3,192c34.1,58.4,80.9,105.2,139.3,139.3c58.3,34,122.9,51.3,192,51.3
		s133.7-17.2,192-51.3c58.4-34.1,105.2-80.9,139.3-139.3c34-58.3,51.3-122.9,51.3-192s-17.2-133.7-51.3-192
		c-34.1-58.4-80.9-105.2-139.3-139.3C2033.8-420,1969.3-437.3,1900.2-437.3z"/>
	<path id="center" class="st2" d="M2165.6-18.2v-73.2c0-9.9-3.6-18.5-10.9-25.7c-7.2-7.2-15.8-10.9-25.7-10.9h-146.4v-146.4
		c0-9.9-3.6-18.5-10.9-25.7c-7.2-7.2-15.8-10.9-25.7-10.9h-73.2c-9.9,0-18.5,3.6-25.7,10.9c-7.2,7.2-10.9,15.8-10.9,25.7V-128
		h-146.4c-9.9,0-18.5,3.6-25.7,10.9c-7.2,7.2-10.9,15.8-10.9,25.7v73.2c0,9.9,3.6,18.5,10.9,25.7s15.8,10.9,25.7,10.9h146.5v146.4
		c0,9.9,3.6,18.5,10.9,25.7c7.2,7.2,15.8,10.9,25.7,10.9h73.2c9.9,0,18.5-3.6,25.7-10.9s10.9-15.8,10.9-25.7V18.4h146.4
		c9.9,0,18.5-3.6,25.7-10.9C2162,0.2,2165.6-8.3,2165.6-18.2z"/>
</g>
</svg>
