<?xml version="1.0" encoding="utf-8"?>
<!-- Generator: Adobe Illustrator 19.1.1, SVG Export Plug-In . SVG Version: 6.00 Build 0)  -->
<svg version="1.1" xmlns="http://www.w3.org/2000/svg" xmlns:xlink="http://www.w3.org/1999/xlink" x="0px" y="0px"
	 viewBox="1236 346 500 100" style="enable-background:new 1236 346 500 100;" xml:space="preserve">
<style type="text/css">
	.st0{fill:#FFFFFF;}
	.st1{fill:#313131;}
	.st2{fill:#168E4C;}
	.st3{fill:#81BC41;}
	.st4{fill:#666666;}
</style>
<g id="Layer_1">
	<g id="_x23_ffffff">
		<g>
			<path class="st0" d="M1676.9,379.8c0,5.3,1.9,9.8,5.6,13.5c3.7,3.7,8.2,5.6,13.5,5.6c5.3,0,9.8-1.9,13.5-5.6
				c3.7-3.7,5.6-8.2,5.6-13.5c0-5.3-1.9-9.8-5.6-13.5c-3.7-3.7-8.2-5.6-13.5-5.6c-5.3,0-9.8,1.9-13.5,5.6
				C1678.8,370,1676.9,374.5,1676.9,379.8z"/>
			<path class="st0" d="M1730.8,420.2c-0.1-1.7-0.3-3.5-0.7-5.4c-0.3-1.9-0.8-3.7-1.3-5.4c-0.5-1.7-1.2-3.3-2.1-4.9
				c-0.9-1.6-1.9-2.9-3.1-4c-1.2-1.1-2.6-2-4.3-2.7s-3.5-1-5.6-1c-0.3,0-1,0.4-2.1,1.1c-1.1,0.7-2.3,1.5-3.7,2.4
				c-1.4,0.9-3.2,1.7-5.4,2.4c-2.2,0.7-4.4,1.1-6.7,1.1s-4.4-0.4-6.7-1.1c-2.2-0.7-4-1.5-5.4-2.4c-1.4-0.9-2.6-1.7-3.7-2.4
				c-1.1-0.7-1.8-1.1-2.1-1.1c-2,0-2.7,0.3-4.4,1c0.7,0.9,8.6,9.3,8.6,9.3c0.4,0.4,0.7,1.4,0.6,2.1c-0.1,0.5-0.2,1-0.6,1.3
				c-0.4,0.4-1.7,0.6-2.2,0.6h-9.7v4.2c0,12.7,0.1,19.6,12.3,23h35c4,0,7.2-1.2,9.7-3.5c2.4-2.3,3.6-5.5,3.6-9.4
				C1731,423.6,1730.9,421.8,1730.8,420.2z"/>
			<path class="st0" d="M1668.8,378.7c1.2,0,2.4-0.1,3.5-0.4c0.3-7.6,4.4-14.2,10.5-18.1c-0.6-2.3-1.9-4.4-3.7-6.3
				c-2.8-2.8-6.3-4.2-10.3-4.2c-4,0-7.4,1.4-10.3,4.2s-4.2,6.3-4.2,10.3s1.4,7.4,4.2,10.3S1664.8,378.7,1668.8,378.7z"/>
			<path class="st0" d="M1657.5,385.3c0.4-0.4,1.2-0.6,1.8-0.6s1,0.2,1.3,0.6l8.5,7.8c0.5-0.2-0.7,0.1-0.2-0.1
				c1.8-0.7,4.4-0.7,6.6-0.7c-2-3.7-2.7-6.3-2.9-10.4c-1.2,0.3-2.4,0.4-3.6,0.4c-1.7,0-3.4-0.3-5-0.8c-1.7-0.5-3-1.1-4.1-1.8
				c-1-0.7-2-1.3-2.8-1.8s-1.4-0.8-1.6-0.8c-1.5,0-2.9,0.3-4.2,0.8c-1.3,0.5-2.3,1.2-3.2,2c-0.9,0.8-1.7,1.9-2.3,3.1
				c-0.7,1.2-1.2,2.4-1.6,3.7s-0.7,2.6-1,4.1c-0.3,1.5-0.6,7.7-0.2,8.8C1643,399.5,1657.5,385.3,1657.5,385.3z"/>
		</g>
		<path class="st0" d="M1658.9,390.1c0.5,0,0.9,0.2,1.2,0.5c0,0,17,16.7,16.6,16.7h-10.8v7.5c0,17.2,2.4,22.4,15.6,27.5
			c-14.9,0-21.7-2-25.7-8.1c-4.4-6.8-3.9-15.1-3.9-19.4v-7.5H1641c-0.5,0,16.7-16.7,16.7-16.7C1658,390.3,1658.5,390.1,1658.9,390.1
			z"/>
	</g>
	<g id="_x23_313131">
		<g>
			<path class="st1" d="M1576.9,379.8c0,5.3,1.9,9.8,5.6,13.5c3.7,3.7,8.2,5.6,13.5,5.6c5.3,0,9.8-1.9,13.5-5.6
				c3.7-3.7,5.6-8.2,5.6-13.5c0-5.3-1.9-9.8-5.6-13.5c-3.7-3.7-8.2-5.6-13.5-5.6c-5.3,0-9.8,1.9-13.5,5.6
				C1578.8,370,1576.9,374.5,1576.9,379.8z"/>
			<path class="st1" d="M1630.8,420.2c-0.1-1.7-0.3-3.5-0.7-5.4c-0.3-1.9-0.8-3.7-1.3-5.4c-0.5-1.7-1.2-3.3-2.1-4.9
				c-0.9-1.6-1.9-2.9-3.1-4c-1.2-1.1-2.6-2-4.3-2.7c-1.7-0.7-3.5-1-5.6-1c-0.3,0-1,0.4-2.1,1.1c-1.1,0.7-2.3,1.5-3.7,2.4
				c-1.4,0.9-3.2,1.7-5.4,2.4c-2.2,0.7-4.4,1.1-6.7,1.1s-4.4-0.4-6.7-1.1c-2.2-0.7-4-1.5-5.4-2.4c-1.4-0.9-2.6-1.7-3.7-2.4
				c-1.1-0.7-1.8-1.1-2.1-1.1c-2,0-2.7,0.3-4.4,1c0.7,0.9,8.6,9.3,8.6,9.3c0.4,0.4,0.7,1.4,0.6,2.1c-0.1,0.5-0.2,1-0.6,1.3
				c-0.4,0.4-1.7,0.6-2.2,0.6h-9.7v4.2c0,12.7,0.1,19.6,12.3,23h35c4,0,7.2-1.2,9.7-3.5c2.4-2.3,3.6-5.5,3.6-9.4
				C1631,423.6,1630.9,421.8,1630.8,420.2z"/>
			<path class="st1" d="M1568.8,378.7c1.2,0,2.4-0.1,3.5-0.4c0.3-7.6,4.4-14.2,10.5-18.1c-0.6-2.3-1.9-4.4-3.7-6.3
				c-2.8-2.8-6.3-4.2-10.3-4.2c-4,0-7.4,1.4-10.3,4.2s-4.2,6.3-4.2,10.3s1.4,7.4,4.2,10.3S1564.8,378.7,1568.8,378.7z"/>
			<path class="st1" d="M1557.5,385.3c0.4-0.4,1.2-0.6,1.8-0.6s1,0.2,1.3,0.6l8.5,7.8c0.5-0.2-0.7,0.1-0.2-0.1
				c1.8-0.7,4.4-0.7,6.6-0.7c-2-3.7-2.7-6.3-2.9-10.4c-1.2,0.3-2.4,0.4-3.6,0.4c-1.7,0-3.4-0.3-5-0.8c-1.7-0.5-3-1.1-4.1-1.8
				c-1-0.7-2-1.3-2.8-1.8s-1.4-0.8-1.6-0.8c-1.5,0-2.9,0.3-4.2,0.8c-1.3,0.5-2.3,1.2-3.2,2c-0.9,0.8-1.7,1.9-2.3,3.1
				c-0.7,1.2-1.2,2.4-1.6,3.7s-0.7,2.6-1,4.1c-0.3,1.5-0.6,7.7-0.2,8.8C1543,399.5,1557.5,385.3,1557.5,385.3z"/>
		</g>
		<path class="st1" d="M1558.9,390.1c0.5,0,0.9,0.2,1.2,0.5c0,0,17,16.7,16.6,16.7h-10.8v7.5c0,17.2,2.4,22.4,15.6,27.5
			c-14.9,0-21.7-2-25.7-8.1c-4.4-6.8-3.9-15.1-3.9-19.4v-7.5H1541c-0.5,0,16.7-16.7,16.7-16.7C1558,390.3,1558.5,390.1,1558.9,390.1
			z"/>
	</g>
	<g id="_x23_168e4c">
		<g>
			<path class="st2" d="M1476.9,379.8c0,5.3,1.9,9.8,5.6,13.5c3.7,3.7,8.2,5.6,13.5,5.6c5.3,0,9.8-1.9,13.5-5.6
				c3.7-3.7,5.6-8.2,5.6-13.5c0-5.3-1.9-9.8-5.6-13.5c-3.7-3.7-8.2-5.6-13.5-5.6c-5.3,0-9.8,1.9-13.5,5.6
				C1478.8,370,1476.9,374.5,1476.9,379.8z"/>
			<path class="st2" d="M1530.8,420.2c-0.1-1.7-0.3-3.5-0.7-5.4c-0.3-1.9-0.8-3.7-1.3-5.4c-0.5-1.7-1.2-3.3-2.1-4.9
				c-0.9-1.6-1.9-2.9-3.1-4c-1.2-1.1-2.6-2-4.3-2.7s-3.5-1-5.6-1c-0.3,0-1,0.4-2.1,1.1c-1.1,0.7-2.3,1.5-3.7,2.4
				c-1.4,0.9-3.2,1.7-5.4,2.4c-2.2,0.7-4.4,1.1-6.7,1.1s-4.4-0.4-6.7-1.1c-2.2-0.7-4-1.5-5.4-2.4c-1.4-0.9-2.6-1.7-3.7-2.4
				c-1.1-0.7-1.8-1.1-2.1-1.1c-2,0-2.7,0.3-4.4,1c0.7,0.9,8.6,9.3,8.6,9.3c0.4,0.4,0.7,1.4,0.6,2.1c-0.1,0.5-0.2,1-0.6,1.3
				c-0.4,0.4-1.7,0.6-2.2,0.6h-9.7v4.2c0,12.7,0.1,19.6,12.3,23h35c4,0,7.2-1.2,9.7-3.5c2.4-2.3,3.6-5.5,3.6-9.4
				C1531,423.6,1530.9,421.8,1530.8,420.2z"/>
			<path class="st2" d="M1468.8,378.7c1.2,0,2.4-0.1,3.5-0.4c0.3-7.6,4.4-14.2,10.5-18.1c-0.6-2.3-1.9-4.4-3.7-6.3
				c-2.8-2.8-6.3-4.2-10.3-4.2c-4,0-7.4,1.4-10.3,4.2s-4.2,6.3-4.2,10.3s1.4,7.4,4.2,10.3S1464.8,378.7,1468.8,378.7z"/>
			<path class="st2" d="M1457.5,385.3c0.4-0.4,1.2-0.6,1.8-0.6s1,0.2,1.3,0.6l8.5,7.8c0.5-0.2-0.7,0.1-0.2-0.1
				c1.8-0.7,4.4-0.7,6.6-0.7c-2-3.7-2.7-6.3-2.9-10.4c-1.2,0.3-2.4,0.4-3.6,0.4c-1.7,0-3.4-0.3-5-0.8c-1.7-0.5-3-1.1-4.1-1.8
				c-1-0.7-2-1.3-2.8-1.8s-1.4-0.8-1.6-0.8c-1.5,0-2.9,0.3-4.2,0.8c-1.3,0.5-2.3,1.2-3.2,2c-0.9,0.8-1.7,1.9-2.3,3.1
				c-0.7,1.2-1.2,2.4-1.6,3.7s-0.7,2.6-1,4.1c-0.3,1.5-0.6,7.7-0.2,8.8C1443,399.5,1457.5,385.3,1457.5,385.3z"/>
		</g>
		<path class="st2" d="M1458.9,390.1c0.5,0,0.9,0.2,1.2,0.5c0,0,17,16.7,16.6,16.7h-10.8v7.5c0,17.2,2.4,22.4,15.6,27.5
			c-14.9,0-21.7-2-25.7-8.1c-4.4-6.8-3.9-15.1-3.9-19.4v-7.5H1441c-0.5,0,16.7-16.7,16.7-16.7C1458,390.3,1458.5,390.1,1458.9,390.1
			z"/>
	</g>
	<g id="_x23_81bc41">
		<g>
			<path class="st3" d="M1376.3,379.8c0,5.3,1.9,9.8,5.6,13.5c3.7,3.7,8.2,5.6,13.5,5.6c5.3,0,9.8-1.9,13.5-5.6
				c3.7-3.7,5.6-8.2,5.6-13.5c0-5.3-1.9-9.8-5.6-13.5c-3.7-3.7-8.2-5.6-13.5-5.6c-5.3,0-9.8,1.9-13.5,5.6
				C1378.2,370,1376.3,374.5,1376.3,379.8z"/>
			<path class="st3" d="M1430.2,420.2c-0.1-1.7-0.3-3.5-0.7-5.4c-0.3-1.9-0.8-3.7-1.3-5.4c-0.5-1.7-1.2-3.3-2.1-4.9
				c-0.9-1.6-1.9-2.9-3.1-4c-1.2-1.1-2.6-2-4.3-2.7c-1.7-0.7-3.5-1-5.6-1c-0.3,0-1,0.4-2.1,1.1c-1.1,0.7-2.3,1.5-3.7,2.4
				c-1.4,0.9-3.2,1.7-5.4,2.4c-2.2,0.7-4.4,1.1-6.7,1.1c-2.2,0-4.4-0.4-6.7-1.1c-2.2-0.7-4-1.5-5.4-2.4c-1.4-0.9-2.6-1.7-3.7-2.4
				s-1.8-1.1-2.1-1.1c-2,0-2.7,0.3-4.4,1c0.7,0.9,8.6,9.3,8.6,9.3c0.4,0.4,0.7,1.4,0.6,2.1c-0.1,0.5-0.2,1-0.6,1.3
				c-0.4,0.4-1.7,0.6-2.2,0.6h-9.7v4.2c0,12.7,0.1,19.6,12.3,23h35c4,0,7.2-1.2,9.7-3.5c2.4-2.3,3.6-5.5,3.6-9.4
				C1430.4,423.6,1430.3,421.8,1430.2,420.2z"/>
			<path class="st3" d="M1368.2,378.7c1.2,0,2.4-0.1,3.5-0.4c0.3-7.6,4.4-14.2,10.5-18.1c-0.6-2.3-1.9-4.4-3.7-6.3
				c-2.8-2.8-6.3-4.2-10.3-4.2c-4,0-7.4,1.4-10.3,4.2s-4.2,6.3-4.2,10.3s1.4,7.4,4.2,10.3S1364.2,378.7,1368.2,378.7z"/>
			<path class="st3" d="M1356.9,385.3c0.4-0.4,1.2-0.6,1.8-0.6s1,0.2,1.3,0.6l8.5,7.8c0.5-0.2-0.7,0.1-0.2-0.1
				c1.8-0.7,4.4-0.7,6.6-0.7c-2-3.7-2.7-6.3-2.9-10.4c-1.2,0.3-2.4,0.4-3.6,0.4c-1.7,0-3.4-0.3-5-0.8c-1.7-0.5-3-1.1-4.1-1.8
				c-1-0.7-2-1.3-2.8-1.8c-0.8-0.5-1.4-0.8-1.6-0.8c-1.5,0-2.9,0.3-4.2,0.8c-1.3,0.5-2.3,1.2-3.2,2c-0.9,0.8-1.7,1.9-2.3,3.1
				c-0.7,1.2-1.2,2.4-1.6,3.7c-0.4,1.3-0.7,2.6-1,4.1c-0.3,1.5-0.6,7.7-0.2,8.8C1342.4,399.5,1356.9,385.3,1356.9,385.3z"/>
		</g>
		<path class="st3" d="M1358.3,390.1c0.5,0,0.9,0.2,1.2,0.5c0,0,17,16.7,16.6,16.7h-10.8v7.5c0,17.2,2.4,22.4,15.6,27.5
			c-14.9,0-21.7-2-25.7-8.1c-4.4-6.8-3.9-15.1-3.9-19.4v-7.5h-10.9c-0.5,0,16.7-16.7,16.7-16.7
			C1357.4,390.3,1357.9,390.1,1358.3,390.1z"/>
	</g>
	<g id="_x23_666666">
		<g>
			<path class="st4" d="M1276.9,379.8c0,5.3,1.9,9.8,5.6,13.5c3.7,3.7,8.2,5.6,13.5,5.6c5.3,0,9.8-1.9,13.5-5.6
				c3.7-3.7,5.6-8.2,5.6-13.5c0-5.3-1.9-9.8-5.6-13.5c-3.7-3.7-8.2-5.6-13.5-5.6c-5.3,0-9.8,1.9-13.5,5.6
				C1278.8,370,1276.9,374.5,1276.9,379.8z"/>
			<path class="st4" d="M1330.8,420.2c-0.1-1.7-0.3-3.5-0.7-5.4c-0.3-1.9-0.8-3.7-1.3-5.4c-0.5-1.7-1.2-3.3-2.1-4.9
				c-0.9-1.6-1.9-2.9-3.1-4c-1.2-1.1-2.6-2-4.3-2.7s-3.5-1-5.6-1c-0.3,0-1,0.4-2.1,1.1c-1.1,0.7-2.3,1.5-3.7,2.4
				c-1.4,0.9-3.2,1.7-5.4,2.4c-2.2,0.7-4.4,1.1-6.7,1.1s-4.4-0.4-6.7-1.1c-2.2-0.7-4-1.5-5.4-2.4c-1.4-0.9-2.6-1.7-3.7-2.4
				c-1.1-0.7-1.8-1.1-2.1-1.1c-2,0-2.7,0.3-4.4,1c0.7,0.9,8.6,9.3,8.6,9.3c0.4,0.4,0.7,1.4,0.6,2.1c-0.1,0.5-0.2,1-0.6,1.3
				c-0.4,0.4-1.7,0.6-2.2,0.6h-9.7v4.2c0,12.7,0.1,19.6,12.3,23h35c4,0,7.2-1.2,9.7-3.5c2.4-2.3,3.6-5.5,3.6-9.4
				C1331,423.6,1330.9,421.8,1330.8,420.2z"/>
			<path class="st4" d="M1268.8,378.7c1.2,0,2.4-0.1,3.5-0.4c0.3-7.6,4.4-14.2,10.5-18.1c-0.6-2.3-1.9-4.4-3.7-6.3
				c-2.8-2.8-6.3-4.2-10.3-4.2c-4,0-7.4,1.4-10.3,4.2s-4.2,6.3-4.2,10.3s1.4,7.4,4.2,10.3S1264.8,378.7,1268.8,378.7z"/>
			<path class="st4" d="M1257.5,385.3c0.4-0.4,1.2-0.6,1.8-0.6s1,0.2,1.3,0.6l8.5,7.8c0.5-0.2-0.7,0.1-0.2-0.1
				c1.8-0.7,4.4-0.7,6.6-0.7c-2-3.7-2.7-6.3-2.9-10.4c-1.2,0.3-2.4,0.4-3.6,0.4c-1.7,0-3.4-0.3-5-0.8c-1.7-0.5-3-1.1-4.1-1.8
				c-1-0.7-2-1.3-2.8-1.8s-1.4-0.8-1.6-0.8c-1.5,0-2.9,0.3-4.2,0.8c-1.3,0.5-2.3,1.2-3.2,2c-0.9,0.8-1.7,1.9-2.3,3.1
				c-0.7,1.2-1.2,2.4-1.6,3.7s-0.7,2.6-1,4.1c-0.3,1.5-0.6,7.7-0.2,8.8C1243,399.5,1257.5,385.3,1257.5,385.3z"/>
		</g>
		<path class="st4" d="M1258.9,390.1c0.5,0,0.9,0.2,1.2,0.5c0,0,17,16.7,16.6,16.7h-10.8v7.5c0,17.2,2.4,22.4,15.6,27.5
			c-14.9,0-21.7-2-25.7-8.1c-4.4-6.8-3.9-15.1-3.9-19.4v-7.5H1241c-0.5,0,16.7-16.7,16.7-16.7C1258,390.3,1258.5,390.1,1258.9,390.1
			z"/>
	</g>
</g>
<g id="guides">
</g>
</svg>
