<?xml version="1.0" encoding="utf-8"?>
<!-- Generator: Adobe Illustrator 19.2.0, SVG Export Plug-In . SVG Version: 6.00 Build 0)  -->
<svg version="1.1" id="Layer_1" xmlns="http://www.w3.org/2000/svg" xmlns:xlink="http://www.w3.org/1999/xlink" x="0px" y="0px"
	 viewBox="0 0 1792 1792" style="enable-background:new 0 0 1792 1792;" xml:space="preserve">
<style type="text/css">
	.st0{fill:#666666;}
</style>
<path class="st0" d="M590.2,896c-90,2.8-163.6,38.3-220.8,106.7H257.7c-45.6,0-83.9-11.3-115-33.8S96,913.5,96,870.2
	C96,674.1,130.4,576,199.3,576c3.3,0,15.4,5.8,36.3,17.5s47.9,23.5,81.3,35.4c33.3,11.9,66.4,17.9,99.2,17.9
	c37.2,0,74.2-6.4,110.8-19.2c-2.8,20.6-4.2,38.9-4.2,55C522.7,759.9,545.2,831,590.2,896z M1482.7,1426.8
	c0,66.7-20.3,119.3-60.8,157.9s-94.4,57.9-161.7,57.9H531.8c-67.2,0-121.1-19.3-161.7-57.9s-60.8-91.3-60.8-157.9
	c0-29.4,1-58.2,2.9-86.3s5.8-58.3,11.7-90.8c5.8-32.5,13.2-62.6,22.1-90.4c8.9-27.8,20.8-54.9,35.8-81.3
	c15-26.4,32.2-48.9,51.7-67.5c19.4-18.6,43.2-33.5,71.3-44.6s59-16.7,92.9-16.7c5.6,0,17.5,6,35.8,17.9s38.6,25.3,60.8,40
	c22.2,14.7,51.9,28.1,89.2,40s74.7,17.9,112.5,17.9s75.3-6,112.5-17.9c37.2-11.9,66.9-25.3,89.2-40c22.2-14.7,42.5-28.1,60.8-40
	s30.3-17.9,35.8-17.9c33.9,0,64.9,5.6,92.9,16.7s51.8,26,71.3,44.6c19.4,18.6,36.7,41.1,51.7,67.5c15,26.4,26.9,53.5,35.8,81.3
	c8.9,27.8,16.3,57.9,22.1,90.4c5.8,32.5,9.7,62.8,11.7,90.8S1482.7,1397.4,1482.7,1426.8z M629.3,362.7
	c0,58.9-20.8,109.2-62.5,150.8C525.2,555.2,474.9,576,416,576s-109.2-20.8-150.8-62.5s-62.5-91.9-62.5-150.8s20.8-109.2,62.5-150.8
	s91.9-62.5,150.8-62.5s109.2,20.8,150.8,62.5C608.5,253.5,629.3,303.8,629.3,362.7z M1216,682.7c0,88.3-31.3,163.8-93.8,226.3
	s-137.9,93.8-226.3,93.8s-163.8-31.3-226.3-93.8S576,771,576,682.7s31.3-163.8,93.8-226.3s137.9-93.8,226.3-93.8
	s163.8,31.3,226.3,93.8S1216,594.3,1216,682.7z M1696,870.2c0,43.3-15.6,76.3-46.7,98.8c-31.1,22.5-69.4,33.8-115,33.8h-111.7
	c-57.2-68.3-130.8-103.9-220.8-106.7c45-65,67.5-136.1,67.5-213.3c0-16.1-1.4-34.4-4.2-55c36.7,12.8,73.6,19.2,110.8,19.2
	c32.8,0,65.8-6,99.2-17.9c33.3-11.9,60.4-23.8,81.3-35.4c20.8-11.7,32.9-17.5,36.3-17.5C1661.6,576,1696,674.1,1696,870.2z
	 M1589.3,362.7c0,58.9-20.8,109.2-62.5,150.8c-41.7,41.7-91.9,62.5-150.8,62.5s-109.2-20.8-150.8-62.5
	c-41.7-41.7-62.5-91.9-62.5-150.8s20.8-109.2,62.5-150.8c41.7-41.7,91.9-62.5,150.8-62.5s109.2,20.8,150.8,62.5
	C1568.5,253.5,1589.3,303.8,1589.3,362.7z"/>
</svg>
