<?xml version="1.0" encoding="utf-8"?>
<!-- Generator: Adobe Illustrator 19.2.0, SVG Export Plug-In . SVG Version: 6.00 Build 0)  -->
<svg version="1.1" xmlns="http://www.w3.org/2000/svg" xmlns:xlink="http://www.w3.org/1999/xlink" x="0px" y="0px"
	 viewBox="0 0 3584 1792" style="enable-background:new 0 0 3584 1792;" xml:space="preserve">
<style type="text/css">
	.st0{fill:#5B5B5B;}
	.st1{fill:#898989;}
	.st2{fill:#81BC41;}
	.st3{fill:#168E4C;}
</style>
<g id="Layer_2">
</g>
<g id="Layer_1">
	<path class="st0" d="M929.6,3055.5c0.2,20.1-6.7,37.2-20.6,51.4l-60.4,61.9c-14.7,14.1-31.9,21.3-51.6,21.5
		c-20.1,0.2-37.2-6.7-51.4-20.6l-208.1-205.4c-14.5-13.5-21.9-30.5-22-51c-0.2-20.1,7.9-38.4,24-54.8l-146.8-144.5l-71.1,72.2
		c-5.3,5.4-11.7,8.1-19.3,8.1c-7.6,0.1-14.1-2.5-19.4-7.8c0.8,0.8,3.2,3,7.2,6.8c4,3.8,6.4,6.2,7.2,7.3c0.8,1.1,2.7,3.3,5.7,6.5
		c3.1,3.2,5,5.7,5.7,7.6c0.8,1.9,1.9,4.4,3.5,7.7c1.5,3.2,2.6,6.3,3.2,9.4c0.6,3,0.9,6.4,0.9,10.2c0.1,14.4-5.1,27.3-15.6,38.8
		c-1.1,1.1-4.2,4.6-9.3,10.3c-5.1,5.7-8.6,9.6-10.7,11.7c-2.1,2.1-5.6,5.3-10.4,9.5c-4.9,4.2-9,7.2-12.4,8.9
		c-3.4,1.7-7.6,3.5-12.5,5.2c-4.9,1.7-9.8,2.6-14.8,2.7c-15.2,0.1-28.1-5.1-38.8-15.6l-233.9-230.3c-10.7-10.5-16.1-23.4-16.2-38.6
		c0-4.9,0.8-9.9,2.4-14.8c1.7-4.9,3.3-9.1,5-12.6c1.7-3.4,4.6-7.6,8.7-12.6s7.2-8.5,9.3-10.6c2.1-2.1,5.9-5.7,11.6-10.9
		s9-8.3,10.2-9.5c11.3-10.7,24.1-16.1,38.6-16.2c3.8,0,7.2,0.2,10.2,0.8c3,0.5,6.2,1.6,9.4,3.1c3.2,1.5,5.8,2.6,7.7,3.4
		c1.9,0.7,4.5,2.6,7.7,5.6c3.2,3,5.4,4.9,6.6,5.6s3.6,3.1,7.5,7.1c3.8,4,6.1,6.3,6.9,7.1c-5.4-5.3-8.1-11.7-8.1-19.3
		c-0.1-7.6,2.5-14.1,7.8-19.4l196.4-199.5c5.3-5.4,11.7-8.1,19.3-8.1c7.6-0.1,14.1,2.5,19.4,7.8c-0.8-0.8-3.2-3-7.2-6.8
		c-4-3.8-6.4-6.2-7.2-7.3s-2.7-3.3-5.7-6.5c-3.1-3.2-5-5.7-5.7-7.6c-0.8-1.9-1.9-4.4-3.5-7.7c-1.5-3.2-2.6-6.3-3.2-9.4
		s-0.9-6.4-0.9-10.2c-0.1-14.4,5.1-27.3,15.6-38.8c1.1-1.1,4.2-4.6,9.3-10.3s8.6-9.6,10.7-11.7c2.1-2.1,5.6-5.3,10.4-9.5
		s9-7.2,12.4-8.9c3.4-1.7,7.6-3.5,12.5-5.2c4.9-1.7,9.8-2.6,14.8-2.7c15.2-0.1,28.1,5.1,38.8,15.6l233.9,230.3
		c10.7,10.5,16.1,23.4,16.2,38.6c0,4.9-0.8,9.9-2.4,14.8c-1.7,4.9-3.3,9.1-5,12.6s-4.6,7.6-8.7,12.6s-7.2,8.5-9.3,10.6
		c-2.1,2.1-5.9,5.7-11.6,10.9c-5.6,5.2-9,8.3-10.2,9.5c-11.3,10.7-24.1,16.1-38.6,16.2c-3.8,0-7.2-0.2-10.2-0.8
		c-3-0.5-6.2-1.6-9.4-3.1s-5.8-2.6-7.7-3.4s-4.5-2.6-7.7-5.6c-3.2-3-5.4-4.9-6.6-5.6c-1.1-0.7-3.6-3.1-7.5-7.1
		c-3.8-4-6.1-6.3-6.9-7.1c5.4,5.3,8.1,11.7,8.1,19.3c0.1,7.6-2.5,14.1-7.8,19.4l-71.1,72.2l146.8,144.5
		c16.2-16.4,34.3-24.7,54.4-24.9c19.7-0.2,37,6.7,51.9,20.6l208.1,204.9C922.2,3018.6,929.4,3035.8,929.6,3055.5z"/>
	<path class="st1" d="M-115.9,2903.1c0.2,20.1-6.7,37.2-20.6,51.4l-60.4,61.9c-14.7,14.1-31.9,21.3-51.6,21.5
		c-20.1,0.2-37.2-6.7-51.4-20.6l-208.1-205.4c-14.5-13.5-21.9-30.5-22-51c-0.2-20.1,7.9-38.4,24-54.8l-146.8-144.5l-71.1,72.2
		c-5.3,5.4-11.7,8.1-19.3,8.1c-7.6,0.1-14.1-2.5-19.4-7.8c0.8,0.8,3.2,3,7.2,6.8c4,3.8,6.4,6.2,7.2,7.3c0.8,1.1,2.7,3.3,5.7,6.5
		c3.1,3.2,5,5.7,5.7,7.6c0.8,1.9,1.9,4.4,3.5,7.7s2.6,6.3,3.2,9.4c0.6,3,0.9,6.4,0.9,10.2c0.1,14.4-5.1,27.3-15.6,38.8
		c-1.1,1.1-4.2,4.6-9.3,10.3c-5.1,5.7-8.6,9.6-10.7,11.7c-2.1,2.1-5.6,5.3-10.4,9.5s-9,7.2-12.4,8.9c-3.4,1.7-7.6,3.5-12.5,5.2
		c-4.9,1.7-9.8,2.6-14.8,2.7c-15.2,0.1-28.1-5.1-38.8-15.6l-233.9-230.3c-10.7-10.5-16.1-23.4-16.2-38.6c0-4.9,0.8-9.9,2.4-14.8
		c1.7-4.9,3.3-9.1,5-12.6c1.7-3.4,4.6-7.6,8.7-12.6c4.1-5,7.2-8.5,9.3-10.6c2.1-2.1,5.9-5.7,11.6-10.9s9-8.3,10.2-9.5
		c11.3-10.7,24.1-16.1,38.6-16.2c3.8,0,7.2,0.2,10.2,0.8c3,0.5,6.2,1.6,9.4,3.1c3.2,1.5,5.8,2.6,7.7,3.4c1.9,0.7,4.5,2.6,7.7,5.6
		c3.2,3,5.4,4.9,6.6,5.6c1.1,0.7,3.6,3.1,7.5,7.1c3.8,4,6.1,6.3,6.9,7.1c-5.4-5.3-8.1-11.7-8.1-19.3c-0.1-7.6,2.5-14.1,7.8-19.4
		l196.4-199.5c5.3-5.4,11.7-8.1,19.3-8.1c7.6-0.1,14.1,2.5,19.4,7.8c-0.8-0.8-3.2-3-7.2-6.8c-4-3.8-6.4-6.2-7.2-7.3
		c-0.8-1.1-2.7-3.3-5.7-6.5c-3.1-3.2-5-5.7-5.7-7.6c-0.8-1.9-1.9-4.4-3.5-7.7c-1.5-3.2-2.6-6.3-3.2-9.4s-0.9-6.4-0.9-10.2
		c-0.1-14.4,5.1-27.3,15.6-38.8c1.1-1.1,4.2-4.6,9.3-10.3s8.6-9.6,10.7-11.7c2.1-2.1,5.6-5.3,10.4-9.5s9-7.2,12.4-8.9
		c3.4-1.7,7.6-3.5,12.5-5.2c4.9-1.7,9.8-2.6,14.8-2.7c15.2-0.1,28.1,5.1,38.8,15.6l233.9,230.3c10.7,10.5,16.1,23.4,16.2,38.6
		c0,4.9-0.8,9.9-2.4,14.8c-1.7,4.9-3.3,9.1-5,12.6s-4.6,7.6-8.7,12.6c-4.1,5-7.2,8.5-9.3,10.6c-2.1,2.1-5.9,5.7-11.6,10.9
		c-5.6,5.2-9,8.3-10.2,9.5c-11.3,10.7-24.1,16.1-38.6,16.2c-3.8,0-7.2-0.2-10.2-0.8c-3-0.5-6.2-1.6-9.4-3.1
		c-3.2-1.5-5.8-2.6-7.7-3.4c-1.9-0.7-4.5-2.6-7.7-5.6c-3.2-3-5.4-4.9-6.6-5.6c-1.1-0.7-3.6-3.1-7.5-7.1c-3.8-4-6.1-6.3-6.9-7.1
		c5.4,5.3,8.1,11.7,8.1,19.3c0.1,7.6-2.5,14.1-7.8,19.4l-71.1,72.2l146.8,144.5c16.2-16.4,34.3-24.7,54.4-24.9
		c19.7-0.2,37,6.7,51.9,20.6l208.1,204.9C-123.2,2866.1-116.1,2883.3-115.9,2903.1z"/>
	<g>
		<path class="st0" d="M1417.5,1114.1V750h82.3v-82.3H1253V750h82.3v362.6l-109.6,130.9h-137.1V750h82.3v-82.3H924V750h82.3v493.5
			H759.5V750h82.3v-82.3H595V750h82.3v493.5H430.5V750h82.3v-82.3H266V750h82.3v493.5H266v82.3h-82.2v82.3h921.9l43.3-22.8
			L1417.5,1114.1z"/>
		<path class="st0" d="M841.8,92H924l658,411.3v82.3H183.8v-82.3L841.8,92z"/>
	</g>
	<path class="st2" d="M1554,1414v-51.3c0-6.9-2.5-13-7.6-18c-5.1-5.1-11.1-7.6-18-7.6h-102.6v-102.6c0-6.9-2.5-13-7.6-18
		c-5.1-5.1-11.1-7.6-18-7.6h-51.3c-6.9,0-13,2.5-18,7.6c-5.1,5.1-7.6,11.1-7.6,18V1337h-102.6c-6.9,0-13,2.5-18,7.6
		c-5.1,5.1-7.6,11.1-7.6,18v51.3c0,6.9,2.5,13,7.6,18c5.1,5.1,11.1,7.6,18,7.6h102.6v102.6c0,6.9,2.5,13,7.6,18
		c5.1,5.1,11.1,7.6,18,7.6h51.3c6.9,0,13-2.5,18-7.6c5.1-5.1,7.6-11.1,7.6-18v-102.6h102.6c6.9,0,13-2.5,18-7.6
		C1551.5,1426.9,1554,1420.9,1554,1414z M1682.3,1388.3c0,55.9-13.8,107.4-41.3,154.6c-27.5,47.2-64.9,84.5-112.1,112.1
		s-98.7,41.3-154.6,41.3c-55.9,0-107.4-13.8-154.6-41.3c-47.2-27.5-84.5-64.9-112.1-112.1c-27.5-47.2-41.3-98.7-41.3-154.6
		s13.8-107.4,41.3-154.6c27.5-47.2,64.9-84.5,112.1-112.1c47.2-27.5,98.7-41.3,154.6-41.3c55.9,0,107.4,13.8,154.6,41.3
		c47.2,27.5,84.5,64.9,112.1,112.1C1668.6,1280.9,1682.3,1332.4,1682.3,1388.3z"/>
	<g>
		<path class="st1" d="M3210.1,1116V751.9h82.3v-82.3h-246.8v82.3h82.3v362.6l-109.6,130.9h-137.1V751.9h82.3v-82.3h-246.8v82.3
			h82.3v493.5h-246.8V751.9h82.3v-82.3h-246.8v82.3h82.3v493.5h-246.8V751.9h82.3v-82.3h-246.8v82.3h82.3v493.5h-82.3v82.3h-82.3
			v82.3h921.9l43.3-22.8L3210.1,1116z"/>
		<path class="st1" d="M2634.3,93.9h82.3l658,411.3v82.2H1976.3v-82.2L2634.3,93.9z"/>
	</g>
	<path class="st3" d="M3346.6,1415.9v-51.3c0-6.9-2.5-13-7.6-18s-11.1-7.6-18-7.6h-102.6v-102.6c0-6.9-2.5-13-7.6-18
		c-5.1-5.1-11.1-7.6-18-7.6h-51.3c-6.9,0-13,2.5-18,7.6c-5.1,5.1-7.6,11.1-7.6,18v102.6H3013c-6.9,0-13,2.5-18,7.6
		c-5.1,5.1-7.6,11.1-7.6,18v51.3c0,6.9,2.5,13,7.6,18c5.1,5.1,11.1,7.6,18,7.6h102.6v102.6c0,6.9,2.5,13,7.6,18s11.1,7.6,18,7.6
		h51.3c6.9,0,13-2.5,18-7.6s7.6-11.1,7.6-18v-102.6h102.6c6.9,0,13-2.5,18-7.6C3344,1428.8,3346.6,1422.8,3346.6,1415.9z
		 M3474.9,1390.2c0,55.9-13.8,107.4-41.3,154.6c-27.5,47.2-64.9,84.5-112.1,112.1c-47.2,27.5-98.7,41.3-154.6,41.3
		s-107.4-13.8-154.6-41.3c-47.2-27.5-84.5-64.9-112.1-112.1s-41.3-98.7-41.3-154.6c0-55.9,13.8-107.4,41.3-154.6
		c27.5-47.2,64.9-84.5,112.1-112.1c47.2-27.5,98.7-41.3,154.6-41.3s107.4,13.8,154.6,41.3c47.2,27.5,84.5,64.9,112.1,112.1
		C3461.1,1282.8,3474.9,1334.3,3474.9,1390.2z"/>
</g>
</svg>
