<?xml version="1.0" encoding="utf-8"?>
<!-- Generator: Adobe Illustrator 19.1.0, SVG Export Plug-In . SVG Version: 6.00 Build 0)  -->
<svg version="1.1" id="Layer_1" xmlns="http://www.w3.org/2000/svg" xmlns:xlink="http://www.w3.org/1999/xlink" x="0px" y="0px"
	 viewBox="590 -500 1792 1792" style="enable-background:new 590 -500 1792 1792;" xml:space="preserve">
<style type="text/css">
	.st0{fill:#666666;}
</style>
<path class="st0" d="M1719.8,302.5c0-90.1-32-167.2-96.1-231.3s-141.2-96.1-231.3-96.1s-167.2,32-231.3,96.1s-96.1,141.2-96.1,231.3
	s32,167.2,96.1,231.3s141.2,96.1,231.3,96.1s167.2-32,231.3-96.1S1719.8,392.6,1719.8,302.5z M2094,910.5c0,25.3-9.3,47.3-27.8,65.8
	c-18.5,18.5-40.4,27.8-65.8,27.8c-26.3,0-48.2-9.3-65.8-27.8L1684,726.3c-87.2,60.4-184.4,90.6-291.6,90.6
	c-69.7,0-136.3-13.5-199.9-40.6c-63.6-27-118.4-63.6-164.4-109.6s-82.6-100.8-109.6-164.4S878,372.1,878,302.5
	s13.5-136.3,40.6-199.9s63.6-118.4,109.6-164.4s100.8-82.6,164.4-109.6s130.2-40.6,199.9-40.6s136.3,13.5,199.9,40.6
	s118.4,63.6,164.4,109.6s82.6,100.8,109.6,164.4s40.6,130.2,40.6,199.9c0,107.2-30.2,204.4-90.6,291.6L2067,844.7
	C2085,862.7,2094,884.6,2094,910.5z"/>
</svg>
