<?xml version="1.0" encoding="utf-8"?>
<!-- Generator: Adobe Illustrator 19.1.0, SVG Export Plug-In . SVG Version: 6.00 Build 0)  -->
<svg version="1.1" xmlns="http://www.w3.org/2000/svg" xmlns:xlink="http://www.w3.org/1999/xlink" x="0px" y="0px"
	 viewBox="0 0 77 77" style="enable-background:new 0 0 77 77;" xml:space="preserve">
<style type="text/css">
	.st0{display:none;}
	.st1{display:inline;}
	.st2{fill:#666766;}
</style>
<g id="male_1_" class="st0">
	<g class="st1">
		<path class="st2" d="M38.5,1C17.8,1,1,17.8,1,38.5C1,55,11.6,69,26.4,74V40.7h-3v16.6c0,1.3-0.4,2.3-1.3,3.2s-1.9,1.3-3.2,1.3
			c-1.3,0-2.3-0.4-3.2-1.3s-1.3-1.9-1.3-3.2V37.7c0-2.5,0.9-4.6,2.6-6.4s3.9-2.6,6.4-2.6h30.2c2.5,0,4.6,0.9,6.4,2.6
			s2.6,3.9,2.6,6.4v19.6c0,1.3-0.4,2.3-1.3,3.2s-1.9,1.3-3.2,1.3s-2.3-0.4-3.2-1.3s-1.3-1.9-1.3-3.2V40.7h-3V74
			C65.4,69,76,55,76,38.5C76,17.8,59.2,1,38.5,1z M46,24.1c-2.1,2.1-4.5,3.1-7.5,3.1c-2.9,0-5.4-1-7.5-3.1c-2.1-2.1-3.1-4.5-3.1-7.5
			c0-2.9,1-5.4,3.1-7.5C33.1,7.1,35.6,6,38.5,6c2.9,0,5.4,1,7.5,3.1c2.1,2.1,3.1,4.5,3.1,7.5C49.1,19.5,48,22,46,24.1z"/>
		<path class="st2" d="M40,61.8h-3V76c0.5,0,1,0,1.5,0s1,0,1.5,0V61.8z"/>
	</g>
</g>
<g id="female_1_">
	<path class="st2" d="M38.5,1.6C17.8,1.6,1,18.3,1,39.1c0,17.6,12.1,32.4,28.5,36.4v-4.2h-9c-0.8,0-1.5-0.3-2.1-0.9
		s-0.9-1.3-0.9-2.1c0-0.6,0.1-1.1,0.4-1.6l11.6-19.3v-6.2h-2.1l-10.7,16c-0.9,1.3-2.2,2-3.8,2c-1.3,0-2.3-0.4-3.2-1.3
		c-0.9-0.9-1.3-1.9-1.3-3.2c0-0.9,0.3-1.7,0.8-2.5l12-18.1c2.3-3.4,5-5,8.3-5h18.1c3.2,0,6,1.7,8.3,5l12,18.1
		c0.5,0.8,0.8,1.6,0.8,2.5c0,1.3-0.4,2.3-1.3,3.2s-1.9,1.3-3.2,1.3c-1.6,0-2.9-0.7-3.8-2l-10.7-16h-2.1v6.2l11.6,19.3
		c0.3,0.5,0.4,1,0.4,1.6c0,0.8-0.3,1.5-0.9,2.1c-0.6,0.6-1.3,0.9-2.1,0.9h-9v4.2C63.9,71.4,76,56.6,76,39.1
		C76,18.3,59.2,1.6,38.5,1.6z M46,24.5c-2.1,2.1-4.5,3.1-7.5,3.1c-2.9,0-5.4-1-7.5-3.1S28,19.9,28,17c0-2.9,1-5.4,3.1-7.5
		s4.5-3.1,7.5-3.1c2.9,0,5.4,1,7.5,3.1S49,14.1,49,17C49,19.9,48,22.4,46,24.5z"/>
</g>
</svg>
